<?xml version="1.0" standalone="no"?>
<!DOCTYPE svg PUBLIC "-//W3C//DTD SVG 20010904//EN"
 "http://www.w3.org/TR/2001/REC-SVG-20010904/DTD/svg10.dtd">
<svg version="1.0" xmlns="http://www.w3.org/2000/svg"
 width="512.000000pt" height="512.000000pt" viewBox="0 0 512.000000 512.000000"
 preserveAspectRatio="xMidYMid meet">

<g transform="translate(0.000000,512.000000) scale(0.100000,-0.100000)"
fill="#000000" stroke="none">
<path d="M1180 4635 c-373 -64 -690 -257 -907 -551 -118 -161 -214 -386 -248
-584 -22 -125 -22 -328 -1 -449 71 -396 330 -816 785 -1272 417 -417 904 -793
1516 -1171 238 -147 228 -142 267 -122 152 79 620 382 865 560 921 671 1486
1341 1622 1922 98 419 -19 878 -307 1205 -417 472 -1073 608 -1646 343 -181
-83 -396 -259 -511 -416 -26 -36 -50 -65 -55 -65 -4 0 -34 36 -68 81 -122 162
-281 292 -477 389 -210 104 -392 146 -630 144 -71 -1 -164 -7 -205 -14z"/>
</g>
</svg>
